<?xml version="1.0" encoding="utf-8"?>
<!-- Generator: Adobe Illustrator 22.0.1, SVG Export Plug-In . SVG Version: 6.00 Build 0)  -->
<svg version="1.1" id="레이어_1" xmlns="http://www.w3.org/2000/svg" xmlns:xlink="http://www.w3.org/1999/xlink" x="0px"
	 y="0px" viewBox="0 0 64 64" style="enable-background:new 0 0 64 64;" xml:space="preserve">
<style type="text/css">
	.st0{fill:#6666CC;}
</style>
<g>
	<g>
		<path class="st0" d="M52.2,9.6H11.8l-2.2,2.2v40.3l2.2,2.2h40.3l2.2-2.2V11.8L52.2,9.6z M49.6,49.6H14.4V14.4h35.2V49.6z"/>
		<path class="st0" d="M40.9,40.8c0,0.3-0.1,0.5-0.2,0.7c-0.1,0.2-0.3,0.4-0.8,0.4h-12c-0.7,0-1.3-0.2-1.6-0.5
			c-0.3-0.3-0.5-0.8-0.5-1.5v-5.1c0-0.5,0.2-0.7,0.5-0.9c0.5-0.3,1.1-0.3,1.6,0c0.2,0.1,0.5,0.4,0.5,0.9v4.7l0.1,0.1h11.5
			c0.5,0,0.7,0.2,0.8,0.4C40.9,40.3,40.9,40.5,40.9,40.8z"/>
		<path class="st0" d="M40.3,20.7v14.6c0,0.5-0.2,0.8-0.4,0.9c-0.2,0.2-0.5,0.2-0.8,0.2s-0.6-0.1-0.8-0.2c-0.2-0.1-0.4-0.4-0.4-0.9
			v-8.4h-3.9c-0.4,0-0.6-0.2-0.8-0.4C33,26.3,33,26.1,33,25.8c0-0.3,0.1-0.5,0.2-0.7c0.2-0.3,0.4-0.4,0.8-0.4h3.9v-4
			c0-0.5,0.2-0.7,0.4-0.9c0.5-0.3,1.1-0.3,1.6,0C40.1,19.9,40.3,20.2,40.3,20.7z"/>
		<path class="st0" d="M35.2,31.3c0,0.3-0.1,0.6-0.3,0.8c-0.2,0.2-0.4,0.4-0.7,0.5c-0.2,0-0.6,0-0.9-0.2c-0.4-0.3-0.9-0.7-1.4-1
			c-0.5-0.4-1-0.8-1.6-1.3c-0.6-0.5-1.1-1-1.3-1.3c0-0.1-0.1-0.2-0.1-0.2c-0.1,0.1-0.1,0.2-0.2,0.3c-0.3,0.4-0.7,0.9-1.4,1.4
			c-0.6,0.5-1.1,1-1.7,1.4c-0.6,0.5-1.1,0.9-1.7,1.3c-0.2,0.2-0.5,0.3-0.7,0.3c-0.1,0-0.2,0-0.3,0c-0.3-0.1-0.5-0.2-0.7-0.5
			c-0.2-0.2-0.3-0.5-0.3-0.8c0-0.2,0.1-0.6,0.5-0.9c1.2-0.8,2.4-1.8,3.5-2.8c0.6-0.5,1-1,1.2-1.6c0.2-0.6,0.4-1.2,0.4-2v-2.9
			c0-0.5,0.2-0.8,0.4-0.9c0.5-0.3,1.1-0.3,1.6,0c0.2,0.1,0.5,0.4,0.5,0.9v2.8c0,0.8,0.1,1.4,0.4,2c0.2,0.6,0.6,1.1,1.2,1.6
			c0.6,0.5,1.2,1,1.7,1.4c0.5,0.4,1,0.8,1.4,1.1C35.1,30.7,35.2,31.1,35.2,31.3z"/>
	</g>
</g>
</svg>
