<?xml version="1.0" encoding="utf-8"?>
<!-- Generator: Adobe Illustrator 22.0.1, SVG Export Plug-In . SVG Version: 6.00 Build 0)  -->
<svg version="1.1" id="레이어_1" xmlns="http://www.w3.org/2000/svg" xmlns:xlink="http://www.w3.org/1999/xlink" x="0px"
	 y="0px" viewBox="0 0 64 64" style="enable-background:new 0 0 64 64;" xml:space="preserve">
<style type="text/css">
	.st0{fill:#6666CC;}
</style>
<g>
	<g>
		<path class="st0" d="M32,9.5C19.6,9.5,9.5,19.6,9.5,32S19.6,54.5,32,54.5S54.5,44.4,54.5,32S44.4,9.5,32,9.5z M32,49.5
			c-12.3,0-20-7.8-20-17.5s8.6-17.5,20-17.5c11.9,0,20,7.8,20,17.5S43.9,49.5,32,49.5z"/>
		<path class="st0" d="M42.2,36.8c-0.1-0.2-0.3-0.4-0.8-0.4h-8.1v-4.3h4.2c0.7,0,1.2-0.2,1.5-0.5s0.5-0.8,0.5-1.5V23
			c0-0.7-0.2-1.2-0.5-1.5S38.2,21,37.5,21h-11c-0.7,0-1.2,0.2-1.5,0.5s-0.5,0.8-0.5,1.5v7.1c0,0.7,0.2,1.2,0.5,1.5s0.8,0.5,1.5,0.5
			h4.3v4.3h-8.1c-0.5,0-0.7,0.2-0.8,0.4c-0.1,0.2-0.2,0.5-0.2,0.8s0.1,0.5,0.2,0.7s0.3,0.4,0.8,0.4h18.8c0.5,0,0.7-0.2,0.8-0.4
			s0.2-0.5,0.2-0.7C42.4,37.2,42.3,37,42.2,36.8z M27.1,29.8L27.1,29.8L27,23.3c0,0,0,0,0.1,0H37c0.1,0,0.1,0,0.1,0.1v6.5H37h-9.9
			V29.8z"/>
	</g>
</g>
</svg>
