<?xml version="1.0" encoding="utf-8"?>
<!-- Generator: Adobe Illustrator 22.0.1, SVG Export Plug-In . SVG Version: 6.00 Build 0)  -->
<svg version="1.1" id="레이어_1" xmlns="http://www.w3.org/2000/svg" xmlns:xlink="http://www.w3.org/1999/xlink" x="0px"
	 y="0px" viewBox="0 0 64 64" style="enable-background:new 0 0 64 64;" xml:space="preserve">
<style type="text/css">
	.st0{fill:#6666CC;}
</style>
<g>
	<g>
		<path class="st0" d="M49.1,20.6L49.1,20.6l1.2-1.2h0c0.7-0.8,0.7-1.9,0-2.6c-0.7-0.7-1.9-0.7-2.6,0l-1.2,1.2h0
			c-3.6-3-7.9-4.8-12.5-5.2v-1.3H34c1.3,0,2.4-1.1,2.4-2.4S35.3,6.6,34,6.6h-4c-1.3,0-2.4,1.1-2.4,2.4s1.1,2.4,2.4,2.4h0.1v1.3
			C18.6,13.7,9.6,23.4,9.6,35c0,12.3,10,22.4,22.4,22.4s22.4-10,22.4-22.4C54.4,29.7,52.5,24.6,49.1,20.6z M32,52.6
			c-9.7,0-17.6-7.9-17.6-17.6S22.3,17.4,32,17.4S49.6,25.3,49.6,35S41.7,52.6,32,52.6z"/>
	</g>
</g>
<g>
	<g>
		<g>
			<path class="st0" d="M44.1,34.9c-0.2,6.5-5.6,11.8-12.1,11.8c-6.5,0-11.9-5.3-11.9-11.9c0-1.8,0.3-3.4,1-4.9c0.2-0.5,0.5-0.8,1-1
				c0.5-0.2,1-0.2,1.5,0s0.8,0.5,1,1c0.2,0.5,0.2,1,0,1.5c-0.5,1-0.7,2.1-0.7,3.4c0,4.5,3.6,8.1,8.1,8.1c4.5,0,8.1-3.6,8.1-8.1
				c0-2.8-1.4-5.3-3.6-6.8l-0.2,0.6c-0.1,0.4-0.6,0.9-1.2,0.9H35c-0.5,0-0.9-0.2-1.1-0.6l-3.3-4c-0.2-0.3-0.4-0.7-0.3-1.3
				c0.1-0.5,0.6-0.9,1.2-0.9l5-0.9c0.3-0.1,0.8-0.1,1.2,0.4c0.3,0.5,0.4,1,0.3,1.4l-0.3,0.8C41.6,26.4,44.1,30.4,44.1,34.9z"/>
		</g>
	</g>
</g>
</svg>
