<?xml version="1.0" encoding="utf-8"?>
<!-- Generator: Adobe Illustrator 22.0.1, SVG Export Plug-In . SVG Version: 6.00 Build 0)  -->
<svg version="1.1" id="레이어_1" xmlns="http://www.w3.org/2000/svg" xmlns:xlink="http://www.w3.org/1999/xlink" x="0px"
	 y="0px" viewBox="0 0 64 64" style="enable-background:new 0 0 64 64;" xml:space="preserve">
<style type="text/css">
	.st0{fill:#6666CC;}
	.st1{enable-background:new    ;}
</style>
<g>
	<g>
		<path class="st0" d="M54.4,35c0,12.3-10,22.4-22.4,22.4S9.6,47.3,9.6,35c0-4.9,1.4-9.3,4.3-13.1c0.4-0.5,1-0.9,1.6-1
			c0.6-0.1,1.3,0.1,1.8,0.5c0.5,0.3,0.8,0.9,0.9,1.5c0.1,0.6-0.1,1.3-0.5,1.8c-2.2,3.1-3.3,6.6-3.3,10.3c0,9.7,7.9,17.6,17.6,17.6
			S49.6,44.7,49.6,35c0-9.6-7.6-17.3-17.2-17.6c-0.6,0-1.2-0.3-1.7-0.8c-0.4-0.4-0.6-0.9-0.6-1.4c0-0.1,0-0.1,0-0.2v-3.6H30
			c-1.3,0-2.4-1.1-2.4-2.4s1.1-2.4,2.4-2.4h4c1.3,0,2.4,1.1,2.4,2.4s-1.1,2.4-2.4,2.4h-0.1v1.3c4.8,0.4,9.2,2.3,12.6,5.2l1.2-1.1
			c0.7-0.7,1.9-0.7,2.6,0c0.7,0.8,0.7,1.9,0,2.6l-1.1,1.1C52.4,24.4,54.4,29.5,54.4,35z"/>
	</g>
</g>
<g class="st1">
	<g>
		<path class="st0" d="M40.1,44.9c0,0.3,0,0.6-0.2,0.8c-0.1,0.1-0.3,0.3-0.7,0.3H26.5c-0.5,0-1.2-0.1-1.6-0.4
			c-0.3-0.3-0.5-0.9-0.5-1.6v-5.9c0-0.5,0.1-1.1,0.5-1.6c0.3-0.3,1-0.4,1.6-0.4h12.2c0.4,0,0.5,0.2,0.7,0.3c0.2,0.2,0.2,0.5,0.2,0.8
			s0,0.5-0.2,0.8c-0.1,0.1-0.3,0.3-0.7,0.3H26.9c0,0,0,0,0,0V40h11.5c0.4,0,0.5,0.2,0.7,0.3c0.2,0.2,0.2,0.5,0.2,0.8
			c0,0.2,0,0.4-0.2,0.7c-0.1,0.2-0.3,0.4-0.7,0.3H27v1.7c0,0,0,0,0,0l12.2,0c0.4,0,0.5,0.2,0.7,0.3C40.1,44.3,40.1,44.7,40.1,44.9z"
			/>
		<path class="st0" d="M42.4,33c0,0.3,0,0.6-0.2,0.8c-0.2,0.1-0.3,0.3-0.8,0.3H22.6c-0.3,0-0.6-0.2-0.8-0.3
			c-0.2-0.2-0.2-0.5-0.2-0.8s0-0.6,0.2-0.8c0.2-0.1,0.3-0.3,0.8-0.3H28c0.2-0.7,0.3-1.4,0.4-2.1l0-0.2c0.1-0.8,0.2-1.5,0.2-2.4v-0.8
			c0,0,0,0-0.1,0h-4.3c-0.3,0-0.6-0.1-0.8-0.3c-0.2-0.2-0.2-0.5-0.2-0.9c0-0.2,0-0.5,0.1-0.8l0.1-0.1c0.2-0.2,0.5-0.3,0.8-0.3H29
			c0.5,0,1.2,0.1,1.6,0.4c0.3,0.3,0.5,0.9,0.5,1.6v1.1c0,1.1-0.1,2.1-0.3,3.2c-0.1,0.6-0.2,1.1-0.4,1.6h6.1c0.2-0.8,0.3-1.5,0.4-2.2
			c0.1-0.9,0.1-1.7,0.1-2.7v-0.8c0,0,0,0-0.1,0h-4.4c-0.3,0-0.6-0.1-0.8-0.3l-0.1-0.1v-0.7c0-0.2,0-0.5,0.1-0.8l0.1-0.1
			c0.1-0.2,0.3-0.3,0.8-0.3h4.9c0.5,0,1.2,0.1,1.6,0.4c0.3,0.3,0.5,0.9,0.5,1.6v1.1c0,1.7-0.2,3.4-0.6,4.8h2.4c0.2,0,0.6,0,0.8,0.4
			C42.4,32.5,42.4,32.8,42.4,33z"/>
	</g>
</g>
</svg>
