<?xml version="1.0" encoding="utf-8"?>
<!-- Generator: Adobe Illustrator 22.0.1, SVG Export Plug-In . SVG Version: 6.00 Build 0)  -->
<svg version="1.1" id="레이어_1" xmlns="http://www.w3.org/2000/svg" xmlns:xlink="http://www.w3.org/1999/xlink" x="0px"
	 y="0px" viewBox="0 0 64 64" style="enable-background:new 0 0 64 64;" xml:space="preserve">
<style type="text/css">
	.st0{fill:#6666CC;}
</style>
<g>
	<g>
		<path class="st0" d="M49.1,20.6l1.2-1.2c0.7-0.8,0.7-1.9,0-2.6c-0.7-0.7-1.9-0.7-2.6,0l-1.2,1.2c-3.5-2.9-7.8-4.8-12.6-5.2v-1.3
			H34c1.3,0,2.4-1.1,2.4-2.4S35.3,6.6,34,6.6h-4c-1.3,0-2.4,1.1-2.4,2.4s1.1,2.4,2.4,2.4h0.1v1.3C18.7,13.7,9.6,23.3,9.6,35
			c0,12.3,10,22.4,22.4,22.4s22.4-10,22.4-22.4C54.4,29.5,52.4,24.5,49.1,20.6z M32,52.6c-9.7,0-17.6-7.9-17.6-17.6
			S22.3,17.4,32,17.4S49.6,25.3,49.6,35S41.7,52.6,32,52.6z"/>
		<path class="st0" d="M33.9,25v10c0,1-0.9,1.9-1.9,1.9S30.1,36,30.1,35V25c0-1,0.9-1.9,1.9-1.9S33.9,24,33.9,25z"/>
	</g>
</g>
</svg>
