<svg xmlns="http://www.w3.org/2000/svg" id="레이어_1" x="0" y="0" version="1.1" viewBox="0 0 64 64" xml:space="preserve"><style>.st0{fill:#66c}</style><path d="M52.2 9.6H11.8l-2.2 2.2v40.3l2.2 2.2h40.3l2.2-2.2V11.8l-2.1-2.2zm-2.6 40H14.4V14.4h35.2v35.2z" class="st0"/><path d="M40.9 40.8c0 .3-.1.5-.2.7-.1.2-.3.4-.8.4h-12c-.7 0-1.3-.2-1.6-.5-.3-.3-.5-.8-.5-1.5v-5.1c0-.5.2-.7.5-.9.5-.3 1.1-.3 1.6 0 .2.1.5.4.5.9v4.7l.1.1H40c.5 0 .7.2.8.4.1.3.1.5.1.8zM40.3 20.7v14.6c0 .5-.2.8-.4.9-.2.2-.5.2-.8.2s-.6-.1-.8-.2c-.2-.1-.4-.4-.4-.9v-8.4H34c-.4 0-.6-.2-.8-.4-.2-.2-.2-.4-.2-.7 0-.3.1-.5.2-.7.2-.3.4-.4.8-.4h3.9v-4c0-.5.2-.7.4-.9.5-.3 1.1-.3 1.6 0 .2.1.4.4.4.9zM35.2 31.3c0 .3-.1.6-.3.8-.2.2-.4.4-.7.5-.2 0-.6 0-.9-.2-.4-.3-.9-.7-1.4-1-.5-.4-1-.8-1.6-1.3-.6-.5-1.1-1-1.3-1.3 0-.1-.1-.2-.1-.2-.1.1-.1.2-.2.3-.3.4-.7.9-1.4 1.4-.6.5-1.1 1-1.7 1.4-.6.5-1.1.9-1.7 1.3-.2.2-.5.3-.7.3h-.3c-.3-.1-.5-.2-.7-.5-.2-.2-.3-.5-.3-.8 0-.2.1-.6.5-.9 1.2-.8 2.4-1.8 3.5-2.8.6-.5 1-1 1.2-1.6.2-.6.4-1.2.4-2v-2.9c0-.5.2-.8.4-.9.5-.3 1.1-.3 1.6 0 .2.1.5.4.5.9v2.8c0 .8.1 1.4.4 2 .2.6.6 1.1 1.2 1.6s1.2 1 1.7 1.4c.5.4 1 .8 1.4 1.1.4 0 .5.4.5.6z" class="st0"/></svg>