<svg xmlns="http://www.w3.org/2000/svg" id="레이어_1" x="0" y="0" version="1.1" viewBox="0 0 64 64" xml:space="preserve"><style>.st0{fill:#66c}</style><path d="M49.1 20.6l1.2-1.2c.7-.8.7-1.9 0-2.6-.7-.7-1.9-.7-2.6 0L46.5 18c-3.5-2.9-7.8-4.8-12.6-5.2v-1.3h.1c1.3 0 2.4-1.1 2.4-2.4S35.3 6.6 34 6.6h-4c-1.3 0-2.4 1.1-2.4 2.4s1.1 2.4 2.4 2.4h.1v1.3C18.7 13.7 9.6 23.3 9.6 35c0 12.3 10 22.4 22.4 22.4s22.4-10 22.4-22.4c0-5.5-2-10.5-5.3-14.4zM32 52.6c-9.7 0-17.6-7.9-17.6-17.6S22.3 17.4 32 17.4 49.6 25.3 49.6 35 41.7 52.6 32 52.6z" class="st0"/><path d="M33.9 25v10c0 1-.9 1.9-1.9 1.9s-1.9-.9-1.9-1.9V25c0-1 .9-1.9 1.9-1.9s1.9.9 1.9 1.9z" class="st0"/></svg>