<svg xmlns="http://www.w3.org/2000/svg" id="레이어_1" x="0" y="0" version="1.1" viewBox="0 0 64 64" xml:space="preserve"><style>.st0{fill:#66c}</style><path d="M54.4 35c0 12.3-10 22.4-22.4 22.4S9.6 47.3 9.6 35c0-4.9 1.4-9.3 4.3-13.1.4-.5 1-.9 1.6-1 .6-.1 1.3.1 1.8.5.5.3.8.9.9 1.5.1.6-.1 1.3-.5 1.8-2.2 3.1-3.3 6.6-3.3 10.3 0 9.7 7.9 17.6 17.6 17.6S49.6 44.7 49.6 35c0-9.6-7.6-17.3-17.2-17.6-.6 0-1.2-.3-1.7-.8-.4-.4-.6-.9-.6-1.4V11.4H30c-1.3 0-2.4-1.1-2.4-2.4s1.1-2.4 2.4-2.4h4c1.3 0 2.4 1.1 2.4 2.4s-1.1 2.4-2.4 2.4h-.1v1.3c4.8.4 9.2 2.3 12.6 5.2l1.2-1.1c.7-.7 1.9-.7 2.6 0 .7.8.7 1.9 0 2.6l-1.1 1.1c3.2 3.9 5.2 9 5.2 14.5z" class="st0"/><path d="M40.1 44.9c0 .3 0 .6-.2.8-.1.1-.3.3-.7.3H26.5c-.5 0-1.2-.1-1.6-.4-.3-.3-.5-.9-.5-1.6v-5.9c0-.5.1-1.1.5-1.6.3-.3 1-.4 1.6-.4h12.2c.4 0 .5.2.7.3.2.2.2.5.2.8s0 .5-.2.8c-.1.1-.3.3-.7.3H26.9V40h11.5c.4 0 .5.2.7.3.2.2.2.5.2.8 0 .2 0 .4-.2.7-.1.2-.3.4-.7.3H27v1.7h12.2c.4 0 .5.2.7.3.2.2.2.6.2.8zM42.4 33c0 .3 0 .6-.2.8-.2.1-.3.3-.8.3H22.6c-.3 0-.6-.2-.8-.3-.2-.2-.2-.5-.2-.8s0-.6.2-.8c.2-.1.3-.3.8-.3H28c.2-.7.3-1.4.4-2.1v-.2c.1-.8.2-1.5.2-2.4v-.8H24.2c-.3 0-.6-.1-.8-.3-.2-.2-.2-.5-.2-.9 0-.2 0-.5.1-.8l.1-.1c.2-.2.5-.3.8-.3H29c.5 0 1.2.1 1.6.4.3.3.5.9.5 1.6v1.1c0 1.1-.1 2.1-.3 3.2-.1.6-.2 1.1-.4 1.6h6.1c.2-.8.3-1.5.4-2.2.1-.9.1-1.7.1-2.7v-.8h-4.5c-.3 0-.6-.1-.8-.3l-.1-.1v-.7c0-.2 0-.5.1-.8l.1-.1c.1-.2.3-.3.8-.3h4.9c.5 0 1.2.1 1.6.4.3.3.5.9.5 1.6V27c0 1.7-.2 3.4-.6 4.8h2.4c.2 0 .6 0 .8.4.2.3.2.6.2.8z" class="st0"/></svg>