<svg xmlns="http://www.w3.org/2000/svg" id="레이어_1" x="0" y="0" version="1.1" viewBox="0 0 64 64" xml:space="preserve"><style>.st0{fill:#66c}</style><path d="M49.1 20.6l1.2-1.2c.7-.8.7-1.9 0-2.6-.7-.7-1.9-.7-2.6 0L46.5 18c-3.5-2.9-7.8-4.8-12.6-5.2v-1.3h.1c1.3 0 2.4-1.1 2.4-2.4S35.3 6.6 34 6.6h-4c-1.3 0-2.4 1.1-2.4 2.4s1.1 2.4 2.4 2.4h.1v1.3C18.7 13.7 9.6 23.3 9.6 35c0 12.3 10 22.4 22.4 22.4s22.4-10 22.4-22.4c0-5.5-2-10.5-5.3-14.4zM32 52.6c-9.7 0-17.6-7.9-17.6-17.6S22.3 17.4 32 17.4 49.6 25.3 49.6 35 41.7 52.6 32 52.6z" class="st0"/><path d="M39.3 38.1c-1.3-.8-3.1-1.2-5.3-1.2s-4 .4-5.3 1.2c-1.3.9-2 2.1-2 3.6 0 1.6.7 2.8 2 3.6 1.3.8 3.1 1.1 5.3 1.1s4-.4 5.3-1.2c1.3-.9 2-2.1 2-3.6s-.7-2.8-2-3.5zm-1.6 5.5c-.9.5-2.2.8-3.7.8-1.6 0-2.9-.3-3.7-.7-.7-.5-1.1-1.1-1.1-1.9 0-.9.3-1.4 1-1.9.9-.5 2.2-.8 3.7-.8s2.8.3 3.7.7c.7.5 1 1.1 1 1.9.1.9-.2 1.4-.9 1.9zM41.1 24.7v11.7c0 .4-.2.6-.4.9l-.1.1c-.2.1-.5.2-.8.2-.3 0-.5-.1-.8-.2-.2-.1-.5-.4-.5-.9v-4.8h-3.7c-.3 0-.6-.1-.8-.3-.2-.2-.2-.5-.2-.9 0-.2 0-.5.2-.7.2-.4.5-.4.8-.4h3.7v-4.5c0-.5.2-.6.4-.9.3-.4.6-.4.9-.4.3 0 .5.1.8.2.2.1.5.3.5.9z" class="st0"/><path d="M35.9 34.9c0 .2 0 .5-.3.8-.1.3-.4.4-.7.5-.3.1-.6 0-.8-.1-.4-.2-.8-.5-1.3-.9s-1-.8-1.6-1.2l-.2-.2c-.5-.4-1-.8-1.3-1.2l-.2-.2c-.1.1-.1.2-.2.3-.3.4-.7.8-1.3 1.2l-.2.1-.9.6c-.3.2-.6.5-.9.7-.5.3-.8.6-1.2.9l-.3.2c-.2.1-.4.2-.7.2-.1 0-.2 0-.3-.1-.2-.1-.5-.2-.6-.4l.1-.1c-.1-.2-.2-.5-.2-.8 0-.4.2-.7.5-.8.3-.2.5-.4.8-.6l.9-.6c.2-.2.5-.3.7-.5.3-.3.7-.6 1.1-.8.5-.4.9-.9 1.1-1.4.3-.5.4-1 .4-1.9v-1.4h-4.1c-.3 0-.6-.1-.8-.3-.2-.2-.2-.5-.2-.9 0-.3 0-.6.2-.8.2-.2.3-.3.8-.3h10.6c.3 0 .6 0 .8.4.2.2.2.5.2.7 0 .2 0 .5-.1.8l-.1.1c-.2.1-.3.3-.8.3h-3.9v1.3c0 .8.1 1.4.4 1.9.3.6.6 1 1.2 1.5.3.3.7.5 1 .8.2.2.5.3.7.5.3.2.6.4.8.6.2.1.4.3.5.4.2.1.4.3.4.7z" class="st0"/></svg>