<svg xmlns="http://www.w3.org/2000/svg" id="레이어_1" x="0" y="0" version="1.1" viewBox="0 0 64 64" xml:space="preserve"><style>.st1{fill:#66c}</style><path d="M42.2 36.8c-.1-.2-.3-.4-.8-.4h-8.1v-4.3h4.2c.7 0 1.2-.2 1.5-.5.3-.3.5-.8.5-1.5V23c0-.7-.2-1.2-.5-1.5-.3-.3-.8-.5-1.5-.5h-11c-.7 0-1.2.2-1.5.5-.3.3-.5.8-.5 1.5v7.1c0 .7.2 1.2.5 1.5.3.3.8.5 1.5.5h4.3v4.3h-8.1c-.5 0-.7.2-.8.4-.1.2-.2.5-.2.8 0 .3.1.5.2.7.1.2.3.4.8.4h18.8c.5 0 .7-.2.8-.4.1-.2.2-.5.2-.7-.1-.4-.2-.6-.3-.8zm-15.1-7l-.1-6.5h10c.1 0 .1 0 .1.1v6.5h-10z" class="st1"/><path d="M54.5 14.5v-5h-45v5h4v35h-4v5h45v-5h-4v-35h4zm-7 35h-31v-35h31v35z" class="st1"/></svg>