<svg xmlns="http://www.w3.org/2000/svg" id="레이어_1" x="0" y="0" version="1.1" viewBox="0 0 64 64" xml:space="preserve"><style>.st0{fill:#66c}</style><path d="M33.9 35c0 .5-.2 1-.6 1.3-.3.3-.8.5-1.4.5s-1-.2-1.4-.5l-7-7.1c-.8-.7-.8-1.9 0-2.6.8-.7 1.9-.8 2.6 0l7.1 7.1c.5.4.7.9.7 1.3z" class="st0"/><path d="M54.4 35c0 12.3-10 22.4-22.4 22.4S9.6 47.3 9.6 35c0-4.7 1.5-9.2 4.3-13.1.3-.5.9-.8 1.5-1 .6-.1 1.3.1 1.8.5.5.3.8.9.9 1.5.1.6-.1 1.3-.5 1.8-2.1 2.9-3.3 6.6-3.3 10.3 0 9.7 7.9 17.6 17.6 17.6S49.6 44.7 49.6 35c0-9.6-7.5-17.3-17.1-17.6-.6 0-1.2-.3-1.7-.8-.2-.2-.3-.4-.4-.6-.2-.3-.3-.7-.3-1v-3.6H30c-1.3 0-2.4-1.1-2.4-2.4s1.1-2.4 2.4-2.4h4c1.3 0 2.4 1.1 2.4 2.4s-1.1 2.4-2.4 2.4h-.1v1.3c4.8.4 9.2 2.2 12.6 5.2l1.1-1.1c.7-.7 1.9-.7 2.6 0 .7.8.7 1.9 0 2.6l-1.1 1.1c3.3 3.9 5.3 9 5.3 14.5z" class="st0"/></svg>