<svg xmlns="http://www.w3.org/2000/svg" id="레이어_1" x="0" y="0" version="1.1" viewBox="0 0 64 64" xml:space="preserve"><style>.st1{fill:#66c}</style><path d="M40.9 35.6v5.7c0 .5-.3.8-.5.9-.3.2-.5.2-.8.2-.3 0-.6-.1-.8-.2-.2-.1-.4-.4-.4-.9V36H26.5c-.4 0-.7-.2-.8-.4-.1-.2-.2-.5-.2-.7 0-.3.1-.6.2-.8.1-.2.3-.4.8-.4h12.4c.7 0 1.2.1 1.6.5.2.2.4.7.4 1.4zM40.9 20.7v11.5c0 .5-.2.7-.4.8-.2.1-.5.2-.8.2-.3 0-.5-.1-.8-.2-.2-.1-.4-.4-.4-.8v-4.8H36V32c0 .5-.2.7-.4.8-.4.3-1.1.3-1.5 0-.2-.1-.4-.4-.4-.8V20.8c0-.5.2-.7.4-.8.5-.3 1.1-.3 1.6 0 .2.1.4.4.4.8v4.3h2.4v-4.4c0-.5.2-.7.4-.8.5-.3 1.1-.3 1.6 0 .1.1.4.3.4.8zM33 30.7c0 .3-.1.5-.3.8-.2.3-.5.4-.8.5-.2 0-.5 0-.9-.3-.3-.3-.7-.6-1.1-.9-.4-.3-.8-.7-1.2-1.1-.6-.5-1-1-1.2-1.3 0-.1-.1-.1-.1-.2 0 .1-.1.1-.1.2-.2.3-.6.8-1.2 1.4-.5.5-1 .9-1.4 1.2-.4.4-.8.7-1.3 1.1-.2.2-.5.3-.7.3h-.2c-.3 0-.6-.2-.8-.4-.2-.2-.3-.5-.3-.8 0-.3.1-.6.4-.8.5-.4.9-.8 1.4-1.3.5-.5 1-.9 1.5-1.4.3-.3.5-.5.7-.8.2-.3.3-.5.4-.8.1-.3.2-.6.2-.9 0-.3.1-.7.1-1.1v-2.5c0-.5.2-.7.4-.9.5-.3 1.1-.3 1.6 0 .2.1.5.4.5.9V24c0 .4 0 .8.1 1.1 0 .3.1.6.2.9.1.3.2.5.4.8.2.3.4.5.7.8.5.5.9.9 1.3 1.2.4.4.8.7 1.2 1.1.3.2.5.5.5.8z" class="st1"/></svg>