<svg xmlns="http://www.w3.org/2000/svg" id="레이어_1" x="0" y="0" version="1.1" viewBox="0 0 64 64" xml:space="preserve"><style>.st0{fill:#66c}</style><path d="M32 9.5C19.6 9.5 9.5 19.6 9.5 32S19.6 54.5 32 54.5 54.5 44.4 54.5 32 44.4 9.5 32 9.5zm0 40C19.7 49.5 9.5 41.7 9.5 32S20.6 14.5 32 14.5c11.9 0 22.5 7.8 22.5 17.5S43.9 49.5 32 49.5z" class="st0"/><path d="M42.2 36.8c-.1-.2-.3-.4-.8-.4h-8.1v-4.3h4.2c.7 0 1.2-.2 1.5-.5.3-.3.5-.8.5-1.5V23c0-.7-.2-1.2-.5-1.5-.3-.3-.8-.5-1.5-.5h-11c-.7 0-1.2.2-1.5.5-.3.3-.5.8-.5 1.5v7.1c0 .7.2 1.2.5 1.5.3.3.8.5 1.5.5h4.3v4.3h-8.1c-.5 0-.7.2-.8.4-.1.2-.2.5-.2.8 0 .3.1.5.2.7.1.2.3.4.8.4h18.8c.5 0 .7-.2.8-.4.1-.2.2-.5.2-.7-.1-.4-.2-.6-.3-.8zm-15.1-7l-.1-6.5h10c.1 0 .1 0 .1.1v6.5h-10z" class="st0"/></svg>