<svg xmlns="http://www.w3.org/2000/svg" id="레이어_1" x="0" y="0" version="1.1" viewBox="0 0 64 64" xml:space="preserve"><style>.st0{fill:#66c}</style><path d="M49.1 20.6l1.2-1.2c.7-.8.7-1.9 0-2.6-.7-.7-1.9-.7-2.6 0L46.5 18c-3.6-3-7.9-4.8-12.5-5.2v-1.3c1.3 0 2.4-1.1 2.4-2.4S35.3 6.6 34 6.6h-4c-1.3 0-2.4 1.1-2.4 2.4s1.1 2.4 2.4 2.4h.1v1.3C18.6 13.7 9.6 23.4 9.6 35c0 12.3 10 22.4 22.4 22.4s22.4-10 22.4-22.4c0-5.3-1.9-10.4-5.3-14.4zM32 52.6c-9.7 0-17.6-7.9-17.6-17.6S22.3 17.4 32 17.4 49.6 25.3 49.6 35 41.7 52.6 32 52.6z" class="st0"/><path d="M44.1 34.9c-.2 6.5-5.6 11.8-12.1 11.8s-11.9-5.3-11.9-11.9c0-1.8.3-3.4 1-4.9.2-.5.5-.8 1-1 .5-.2 1-.2 1.5 0s.8.5 1 1c.2.5.2 1 0 1.5-.5 1-.7 2.1-.7 3.4 0 4.5 3.6 8.1 8.1 8.1s8.1-3.6 8.1-8.1c0-2.8-1.4-5.3-3.6-6.8l-.2.6c-.1.4-.6.9-1.2.9H35c-.5 0-.9-.2-1.1-.6l-3.3-4c-.2-.3-.4-.7-.3-1.3.1-.5.6-.9 1.2-.9l5-.9c.3-.1.8-.1 1.2.4.3.5.4 1 .3 1.4l-.3.8c3.9 2 6.4 6 6.4 10.5z" class="st0"/></svg>