<?xml version="1.0" encoding="utf-8"?>
<!-- Generator: Adobe Illustrator 22.0.1, SVG Export Plug-In . SVG Version: 6.00 Build 0)  -->
<svg version="1.1" id="레이어_1" xmlns="http://www.w3.org/2000/svg" xmlns:xlink="http://www.w3.org/1999/xlink" x="0px"
	 y="0px" viewBox="0 0 64 64" style="enable-background:new 0 0 64 64;" xml:space="preserve">
<style type="text/css">
	.st0{fill:#6666CC;}
</style>
<g>
	<g>
		<g>
			<polygon class="st0" points="53.4,49.6 53.4,52.2 52.2,53.4 49.6,53.4 49.6,50.6 50.6,50.6 50.6,49.6 			"/>
		</g>
	</g>
	<g>
		<g>
			<rect x="39.6" y="50.6" class="st0" width="4.8" height="2.8"/>
			<rect x="29.6" y="50.6" class="st0" width="4.8" height="2.8"/>
			<rect x="19.6" y="50.6" class="st0" width="4.8" height="2.8"/>
		</g>
	</g>
	<g>
		<g>
			<polygon class="st0" points="14.4,50.6 14.4,53.4 11.8,53.4 10.6,52.2 10.6,49.6 13.4,49.6 13.4,50.6 			"/>
		</g>
	</g>
	<g>
		<g>
			<rect x="10.6" y="39.6" class="st0" width="2.8" height="4.8"/>
			<rect x="10.6" y="29.6" class="st0" width="2.8" height="4.8"/>
			<rect x="10.6" y="19.6" class="st0" width="2.8" height="4.8"/>
		</g>
	</g>
	<g>
		<g>
			<polygon class="st0" points="14.4,10.6 14.4,13.4 13.4,13.4 13.4,14.4 10.6,14.4 10.6,11.8 11.8,10.6 			"/>
		</g>
	</g>
	<g>
		<g>
			<rect x="29.6" y="10.6" class="st0" width="4.8" height="2.8"/>
			<rect x="39.6" y="10.6" class="st0" width="4.8" height="2.8"/>
			<rect x="19.6" y="10.6" class="st0" width="4.8" height="2.8"/>
		</g>
	</g>
	<g>
		<g>
			<polygon class="st0" points="53.4,11.8 53.4,14.4 50.6,14.4 50.6,13.4 49.6,13.4 49.6,10.6 52.2,10.6 			"/>
		</g>
	</g>
	<g>
		<g>
			<rect x="50.6" y="19.6" class="st0" width="2.8" height="4.8"/>
			<rect x="50.6" y="29.6" class="st0" width="2.8" height="4.8"/>
			<rect x="50.6" y="39.6" class="st0" width="2.8" height="4.8"/>
		</g>
	</g>
</g>
<g>
	<g>
		<path class="st0" d="M41,40.8c0,0.2,0,0.5-0.2,0.7c-0.2,0.4-0.6,0.4-0.8,0.4H28c-0.5,0-1.2-0.1-1.6-0.4c-0.3-0.3-0.5-0.9-0.5-1.6
			v-5.1c0-0.5,0.2-0.6,0.4-0.9l0.1-0.1h0.7c0.3,0,0.5,0.1,0.8,0.2c0.2,0.1,0.5,0.4,0.5,0.9v4.7c0,0,0,0,0.1,0H40
			c0.3,0,0.6,0.2,0.8,0.3l0.1,0.1C41,40.4,41,40.6,41,40.8z"/>
		<path class="st0" d="M35.2,31.4c0,0.3-0.1,0.5-0.2,0.8c-0.1,0.3-0.5,0.5-0.8,0.5c-0.2,0-0.6,0-0.9-0.3L33,32.2
			c-0.4-0.3-0.7-0.6-1.1-0.8c-0.5-0.4-1-0.8-1.6-1.3c-0.6-0.5-1-0.9-1.4-1.4c-0.1-0.1-0.1-0.2-0.2-0.3c-0.1,0.1-0.1,0.2-0.2,0.3
			c-0.2,0.4-0.7,0.8-1.3,1.3l-0.1,0.1c-0.3,0.3-0.6,0.5-0.8,0.7c-0.3,0.2-0.6,0.5-0.9,0.7c-0.3,0.2-0.5,0.3-0.7,0.5
			c-0.3,0.3-0.7,0.5-1,0.7C23.4,33,23.1,33,22.9,33l-0.2,0c-0.2-0.1-0.4-0.2-0.6-0.4L22,32.4c-0.1-0.2-0.2-0.3-0.2-0.7
			c0-0.5,0.2-0.7,0.4-0.9c1.1-0.7,2.2-1.6,3.5-2.8c0.5-0.4,0.9-0.9,1.2-1.6c0.3-0.5,0.4-1.1,0.4-1.9v-2.9c0-0.5,0.2-0.6,0.4-0.9
			l0.1-0.1l0.1,0c0.4-0.1,0.7-0.1,0.9-0.1c0.3,0,0.5,0.1,0.8,0.2c0.2,0.1,0.5,0.4,0.5,0.9v2.8c0,0.8,0.1,1.4,0.4,1.9
			c0.3,0.7,0.7,1.2,1.2,1.6c0.6,0.5,1.2,1,1.7,1.4c0.5,0.4,1,0.8,1.4,1.1C35,30.8,35.2,30.9,35.2,31.4z"/>
		<path class="st0" d="M40.4,20.8v14.6c0,0.5-0.2,0.6-0.4,0.9l-0.1,0.1h-0.8c-0.3,0-0.5-0.1-0.8-0.3c-0.2-0.1-0.5-0.4-0.5-0.9v-8.4
			h-3.9c-0.3,0-0.6-0.1-0.8-0.3c-0.2-0.2-0.2-0.5-0.2-0.9c0-0.2,0-0.5,0.2-0.7c0.2-0.4,0.5-0.4,0.8-0.4h3.9v-3.9
			c0-0.5,0.2-0.6,0.4-0.9l0.1-0.1h0.8c0.3,0,0.5,0.1,0.8,0.2C40.1,20,40.4,20.2,40.4,20.8z"/>
	</g>
</g>
</svg>
