<?xml version="1.0" encoding="utf-8"?>
<!-- Generator: Adobe Illustrator 22.0.1, SVG Export Plug-In . SVG Version: 6.00 Build 0)  -->
<svg version="1.1" id="레이어_1" xmlns="http://www.w3.org/2000/svg" xmlns:xlink="http://www.w3.org/1999/xlink" x="0px"
	 y="0px" viewBox="0 0 64 64" style="enable-background:new 0 0 64 64;" xml:space="preserve">
<style type="text/css">
	.st0{fill:#6666CC;}
	.st1{enable-background:new    ;}
</style>
<g>
	<g>
		<path class="st0" d="M49.1,20.6l1.2-1.2c0.7-0.8,0.7-1.9,0-2.6c-0.7-0.7-1.9-0.7-2.6,0l-1.2,1.2c-3.5-2.9-7.8-4.8-12.6-5.2v-1.3
			H34c1.3,0,2.4-1.1,2.4-2.4S35.3,6.6,34,6.6h-4c-1.3,0-2.4,1.1-2.4,2.4s1.1,2.4,2.4,2.4h0.1v1.3C18.7,13.7,9.6,23.3,9.6,35
			c0,12.3,10,22.4,22.4,22.4s22.4-10,22.4-22.4C54.4,29.5,52.4,24.5,49.1,20.6z M32,52.6c-9.7,0-17.6-7.9-17.6-17.6
			S22.3,17.4,32,17.4S49.6,25.3,49.6,35S41.7,52.6,32,52.6z"/>
	</g>
</g>
<g class="st1">
	<g>
		<path class="st0" d="M39.3,38.1c-1.3-0.8-3.1-1.2-5.3-1.2s-4,0.4-5.3,1.2c-1.3,0.9-2,2.1-2,3.6c0,1.6,0.7,2.8,2,3.6
			c1.3,0.8,3.1,1.1,5.3,1.1s4-0.4,5.3-1.2c1.3-0.9,2-2.1,2-3.6C41.3,40.1,40.6,38.8,39.3,38.1z M37.7,43.6c-0.9,0.5-2.2,0.8-3.7,0.8
			c-1.6,0-2.9-0.3-3.7-0.7c-0.7-0.5-1.1-1.1-1.1-1.9c0-0.9,0.3-1.4,1-1.9c0.9-0.5,2.2-0.8,3.7-0.8s2.8,0.3,3.7,0.7
			c0.7,0.5,1,1.1,1,1.9C38.7,42.6,38.4,43.1,37.7,43.6z"/>
		<path class="st0" d="M41.1,24.7v11.7c0,0.4-0.2,0.6-0.4,0.9l-0.1,0.1c-0.2,0.1-0.5,0.2-0.8,0.2c-0.3,0-0.5-0.1-0.8-0.2
			c-0.2-0.1-0.5-0.4-0.5-0.9v-4.8h-3.7c-0.3,0-0.6-0.1-0.8-0.3c-0.2-0.2-0.2-0.5-0.2-0.9c0-0.2,0-0.5,0.2-0.7
			c0.2-0.4,0.5-0.4,0.8-0.4h3.7v-4.5c0-0.5,0.2-0.6,0.4-0.9c0.3-0.4,0.6-0.4,0.9-0.4c0.3,0,0.5,0.1,0.8,0.2
			C40.8,23.9,41.1,24.1,41.1,24.7z"/>
		<path class="st0" d="M35.9,34.9c0,0.2,0,0.5-0.3,0.8c-0.1,0.3-0.4,0.4-0.7,0.5c-0.3,0.1-0.6,0-0.8-0.1c-0.4-0.2-0.8-0.5-1.3-0.9
			c-0.5-0.4-1-0.8-1.6-1.2L31,33.8c-0.5-0.4-1-0.8-1.3-1.2c-0.1-0.1-0.2-0.2-0.2-0.2c-0.1,0.1-0.1,0.2-0.2,0.3
			c-0.3,0.4-0.7,0.8-1.3,1.2l-0.2,0.1c-0.3,0.2-0.6,0.4-0.9,0.6c-0.3,0.2-0.6,0.5-0.9,0.7c-0.5,0.3-0.8,0.6-1.2,0.9l-0.3,0.2
			c-0.2,0.1-0.4,0.2-0.7,0.2c-0.1,0-0.2,0-0.3-0.1c-0.2-0.1-0.5-0.2-0.6-0.4L23,36c-0.1-0.2-0.2-0.5-0.2-0.8c0-0.4,0.2-0.7,0.5-0.8
			c0.3-0.2,0.5-0.4,0.8-0.6c0.3-0.2,0.6-0.4,0.9-0.6c0.2-0.2,0.5-0.3,0.7-0.5c0.3-0.3,0.7-0.6,1.1-0.8c0.5-0.4,0.9-0.9,1.1-1.4
			c0.3-0.5,0.4-1,0.4-1.9v-1.4h-4.1c-0.3,0-0.6-0.1-0.8-0.3c-0.2-0.2-0.2-0.5-0.2-0.9c0-0.3,0-0.6,0.2-0.8c0.2-0.2,0.3-0.3,0.8-0.3
			h10.6c0.3,0,0.6,0,0.8,0.4c0.2,0.2,0.2,0.5,0.2,0.7c0,0.2,0,0.5-0.1,0.8l-0.1,0.1c-0.2,0.1-0.3,0.3-0.8,0.3h-3.9v1.3
			c0,0.8,0.1,1.4,0.4,1.9c0.3,0.6,0.6,1,1.2,1.5c0.3,0.3,0.7,0.5,1,0.8c0.2,0.2,0.5,0.3,0.7,0.5c0.3,0.2,0.6,0.4,0.8,0.6
			c0.2,0.1,0.4,0.3,0.5,0.4C35.7,34.3,35.9,34.5,35.9,34.9z"/>
	</g>
</g>
</svg>
