<?xml version="1.0" encoding="utf-8"?>
<!-- Generator: Adobe Illustrator 22.0.1, SVG Export Plug-In . SVG Version: 6.00 Build 0)  -->
<svg version="1.1" id="레이어_1" xmlns="http://www.w3.org/2000/svg" xmlns:xlink="http://www.w3.org/1999/xlink" x="0px"
	 y="0px" viewBox="0 0 64 64" style="enable-background:new 0 0 64 64;" xml:space="preserve">
<style type="text/css">
	.st0{fill:#675DCE;}
</style>
<g>
	<path class="st0" d="M32,57c-12.1,0-22-9.9-22-22s9.9-22,22-22s22,9.9,22,22S44.1,57,32,57z M32,17c-9.9,0-18,8.1-18,18
		c0,9.9,8.1,18,18,18c9.9,0,18-8.1,18-18C50,25.1,41.9,17,32,17z"/>
</g>
<g>
	<path class="st0" d="M32,16.5c-0.8,0-1.5-0.7-1.5-1.5v-4c0-0.8,0.7-1.5,1.5-1.5s1.5,0.7,1.5,1.5v4C33.5,15.8,32.8,16.5,32,16.5z"/>
</g>
<g>
	<path class="st0" d="M46.2,22.3c-0.4,0-0.8-0.1-1.1-0.4c-0.6-0.6-0.6-1.5,0-2.1l2.8-2.8c0.6-0.6,1.5-0.6,2.1,0
		c0.6,0.6,0.6,1.5,0,2.1l-2.8,2.8C47,22.2,46.6,22.3,46.2,22.3z"/>
</g>
<g>
	<path class="st0" d="M34,11h-4c-1.1,0-2-0.9-2-2s0.9-2,2-2h4c1.1,0,2,0.9,2,2S35.1,11,34,11z"/>
</g>
<g>
	<g>
		<path class="st0" d="M32,46.3c-6.3,0-11.5-5.2-11.5-11.5c0-1.6,0.3-3.2,1-4.7c0.3-0.8,1.2-1.1,2-0.8c0.8,0.3,1.1,1.2,0.8,2
			c-0.5,1.1-0.7,2.3-0.7,3.5c0,4.7,3.8,8.5,8.5,8.5c4.7,0,8.5-3.8,8.5-8.5c0-4.2-3-7.7-7.1-8.4c-0.8-0.1-1.4-0.9-1.2-1.7
			c0.1-0.8,0.9-1.4,1.7-1.2c5.6,0.9,9.7,5.7,9.7,11.4C43.5,41.2,38.3,46.3,32,46.3z"/>
	</g>
	<g>
		<path class="st0" d="M35,29.1c-0.3,0-0.6-0.1-0.8-0.4l-3.3-4c-0.2-0.3-0.3-0.6-0.2-1s0.4-0.6,0.8-0.6l5.1-0.9
			c0.4-0.1,0.7,0.1,0.9,0.3c0.2,0.3,0.3,0.7,0.2,1L36,28.5c-0.1,0.3-0.4,0.6-0.8,0.6C35.1,29.1,35.1,29.1,35,29.1z M33.6,24.9
			l1.1,1.3l0.6-1.6L33.6,24.9z"/>
	</g>
</g>
</svg>
