<?xml version="1.0" encoding="utf-8"?>
<!-- Generator: Adobe Illustrator 22.0.1, SVG Export Plug-In . SVG Version: 6.00 Build 0)  -->
<svg version="1.1" id="레이어_1" xmlns="http://www.w3.org/2000/svg" xmlns:xlink="http://www.w3.org/1999/xlink" x="0px"
	 y="0px" viewBox="0 0 64 64" style="enable-background:new 0 0 64 64;" xml:space="preserve">
<style type="text/css">
	.st0{fill:#6666CC;}
</style>
<g>
	<g>
		<path class="st0" d="M33.9,35c0,0.5-0.2,1-0.6,1.3c-0.3,0.3-0.8,0.5-1.4,0.5s-1-0.2-1.4-0.5l-7-7.1c-0.8-0.7-0.8-1.9,0-2.6
			c0.8-0.7,1.9-0.8,2.6,0l7.1,7.1C33.7,34.1,33.9,34.6,33.9,35z"/>
	</g>
</g>
<g>
	<g>
		<path class="st0" d="M54.4,35c0,12.3-10,22.4-22.4,22.4S9.6,47.3,9.6,35c0-4.7,1.5-9.2,4.3-13.1c0.3-0.5,0.9-0.8,1.5-1
			c0.6-0.1,1.3,0.1,1.8,0.5c0.5,0.3,0.8,0.9,0.9,1.5c0.1,0.6-0.1,1.3-0.5,1.8c-2.1,2.9-3.3,6.6-3.3,10.3c0,9.7,7.9,17.6,17.6,17.6
			S49.6,44.7,49.6,35c0-9.6-7.5-17.3-17.1-17.6c-0.6,0-1.2-0.3-1.7-0.8c-0.2-0.2-0.3-0.4-0.4-0.6c0,0,0,0,0,0
			c-0.2-0.3-0.3-0.7-0.3-1v-3.6H30c-1.3,0-2.4-1.1-2.4-2.4s1.1-2.4,2.4-2.4h4c1.3,0,2.4,1.1,2.4,2.4s-1.1,2.4-2.4,2.4h-0.1v1.3
			c4.8,0.4,9.2,2.2,12.6,5.2l1.1-1.1c0.7-0.7,1.9-0.7,2.6,0c0.7,0.8,0.7,1.9,0,2.6l-1.1,1.1C52.4,24.4,54.4,29.5,54.4,35z"/>
	</g>
</g>
</svg>
