<?xml version="1.0" encoding="utf-8"?>
<!-- Generator: Adobe Illustrator 22.0.1, SVG Export Plug-In . SVG Version: 6.00 Build 0)  -->
<svg version="1.1" id="레이어_1" xmlns="http://www.w3.org/2000/svg" xmlns:xlink="http://www.w3.org/1999/xlink" x="0px"
	 y="0px" viewBox="0 0 64 64" style="enable-background:new 0 0 64 64;" xml:space="preserve">
<style type="text/css">
	.st0{fill:#675DCE;}
</style>
<g>
	<path class="st0" d="M32,57c-12.1,0-22-9.9-22-22s9.9-22,22-22s22,9.9,22,22S44.1,57,32,57z M32,17c-9.9,0-18,8.1-18,18
		c0,9.9,8.1,18,18,18c9.9,0,18-8.1,18-18C50,25.1,41.9,17,32,17z"/>
</g>
<g>
	<path class="st0" d="M32,36.5c-0.8,0-1.5-0.7-1.5-1.5V25c0-0.8,0.7-1.5,1.5-1.5s1.5,0.7,1.5,1.5v10C33.5,35.8,32.8,36.5,32,36.5z"
		/>
</g>
<g>
	<path class="st0" d="M32,16.5c-0.8,0-1.5-0.7-1.5-1.5v-4c0-0.8,0.7-1.5,1.5-1.5s1.5,0.7,1.5,1.5v4C33.5,15.8,32.8,16.5,32,16.5z"/>
</g>
<g>
	<path class="st0" d="M46.2,22.3c-0.4,0-0.8-0.1-1.1-0.4c-0.6-0.6-0.6-1.5,0-2.1l2.8-2.8c0.6-0.6,1.5-0.6,2.1,0
		c0.6,0.6,0.6,1.5,0,2.1l-2.8,2.8C46.9,22.2,46.5,22.3,46.2,22.3z"/>
</g>
<g>
	<path class="st0" d="M34,11h-4c-1.1,0-2-0.9-2-2s0.9-2,2-2h4c1.1,0,2,0.9,2,2S35.1,11,34,11z"/>
</g>
</svg>
