<?xml version="1.0" encoding="utf-8"?>
<!-- Generator: Adobe Illustrator 22.0.1, SVG Export Plug-In . SVG Version: 6.00 Build 0)  -->
<svg version="1.1" id="레이어_1" xmlns="http://www.w3.org/2000/svg" xmlns:xlink="http://www.w3.org/1999/xlink" x="0px"
	 y="0px" viewBox="0 0 64 64" style="enable-background:new 0 0 64 64;" xml:space="preserve">
<style type="text/css">
	.st0{fill:#675DCE;}
	.st1{enable-background:new    ;}
</style>
<g>
	<path class="st0" d="M32,57c-12.1,0-22-9.9-22-22c0-4.7,1.4-9.1,4.2-12.9c0.7-0.9,1.9-1.1,2.8-0.4c0.9,0.6,1.1,1.9,0.4,2.8
		C15.2,27.6,14,31.2,14,35c0,9.9,8.1,18,18,18s18-8.1,18-18c0-9.8-7.7-17.7-17.6-18c-1.1,0-2-1-1.9-2.1c0-1.1,0.9-2,2.1-1.9
		C44.6,13.3,54,23,54,35C54,47.1,44.1,57,32,57z"/>
</g>
<g>
	<path class="st0" d="M32,16.5c-0.8,0-1.5-0.7-1.5-1.5v-4c0-0.8,0.7-1.5,1.5-1.5s1.5,0.7,1.5,1.5v4C33.5,15.8,32.8,16.5,32,16.5z"/>
</g>
<g>
	<path class="st0" d="M46.2,22.3c-0.4,0-0.8-0.1-1.1-0.4c-0.6-0.6-0.6-1.5,0-2.1l2.8-2.8c0.6-0.6,1.5-0.6,2.1,0s0.6,1.5,0,2.1
		l-2.8,2.8C47,22.2,46.6,22.3,46.2,22.3z"/>
</g>
<g>
	<path class="st0" d="M34,11h-4c-1.1,0-2-0.9-2-2s0.9-2,2-2h4c1.1,0,2,0.9,2,2S35.1,11,34,11z"/>
</g>
<g class="st1">
	<path class="st0" d="M41.9,32.5C42,32.6,42,32.8,42,33s0,0.4-0.1,0.5s-0.2,0.2-0.5,0.2H22.6c-0.2,0-0.4-0.1-0.5-0.2
		C22,33.4,22,33.2,22,33s0-0.4,0.1-0.5c0.1-0.1,0.2-0.2,0.5-0.2h18.8C41.6,32.3,41.8,32.3,41.9,32.5z M29,24.4
		c0.6,0,1.1,0.1,1.3,0.3c0.2,0.2,0.4,0.7,0.4,1.3v1.1c0,1.1-0.1,2.1-0.3,3.1c-0.2,1-0.4,1.9-0.7,2.8l-1.5-0.3c0.3-1,0.5-1.9,0.6-2.8
		s0.2-1.7,0.2-2.7v-0.8c0-0.3-0.2-0.4-0.5-0.4h-4.3c-0.2,0-0.4-0.1-0.5-0.2s-0.1-0.3-0.1-0.6c0-0.2,0-0.4,0.1-0.6
		c0.1-0.1,0.3-0.2,0.5-0.2C24.2,24.4,29,24.4,29,24.4z M39.1,36.7c0.1,0.1,0.1,0.3,0.1,0.5s0,0.4-0.1,0.5s-0.2,0.2-0.4,0.2H26.9
		c-0.3,0-0.4,0.1-0.4,0.4v2.1h11.9c0.2,0,0.3,0.1,0.4,0.2s0.1,0.3,0.1,0.5s0,0.3-0.1,0.5s-0.2,0.1-0.3,0.1H26.6v2.1
		c0,0.3,0.1,0.4,0.4,0.4h12.2c0.2,0,0.3,0.1,0.4,0.2c0.1,0.1,0.1,0.3,0.1,0.5s0,0.4-0.1,0.5s-0.2,0.2-0.4,0.2H26.5
		c-0.6,0-1.1-0.1-1.3-0.3c-0.2-0.2-0.4-0.7-0.4-1.3v-5.9c0-0.6,0.1-1,0.4-1.3c0.2-0.2,0.7-0.3,1.3-0.3h12.2
		C38.9,36.5,39,36.6,39.1,36.7z M37.5,24.4c0.6,0,1.1,0.1,1.3,0.3c0.2,0.2,0.4,0.7,0.4,1.3v1.1c0,2.1-0.3,4.1-0.9,5.8l-1.6-0.3
		c0.3-1,0.5-1.9,0.6-2.8s0.1-1.7,0.1-2.7v-0.8c0-0.3-0.2-0.4-0.5-0.4h-4.4c-0.2,0-0.4-0.1-0.5-0.2c0-0.1,0-0.3,0-0.5s0-0.4,0.1-0.6
		c0.1-0.1,0.2-0.2,0.5-0.2C32.6,24.4,37.5,24.4,37.5,24.4z"/>
</g>
</svg>
