<?xml version="1.0" encoding="utf-8"?>
<!-- Generator: Adobe Illustrator 22.0.1, SVG Export Plug-In . SVG Version: 6.00 Build 0)  -->
<svg version="1.1" id="레이어_1" xmlns="http://www.w3.org/2000/svg" xmlns:xlink="http://www.w3.org/1999/xlink" x="0px"
	 y="0px" viewBox="0 0 64 64" style="enable-background:new 0 0 64 64;" xml:space="preserve">
<style type="text/css">
	.st0{enable-background:new    ;}
	.st1{fill:#6666CC;}
</style>
<g class="st0">
	<g>
		<path class="st1" d="M40.9,35.6v5.7c0,0.5-0.3,0.8-0.5,0.9c-0.3,0.2-0.5,0.2-0.8,0.2c-0.3,0-0.6-0.1-0.8-0.2
			c-0.2-0.1-0.4-0.4-0.4-0.9V36c0,0,0,0-0.1,0H26.5c-0.4,0-0.7-0.2-0.8-0.4c-0.1-0.2-0.2-0.5-0.2-0.7c0-0.3,0.1-0.6,0.2-0.8
			c0.1-0.2,0.3-0.4,0.8-0.4h12.4c0.7,0,1.2,0.1,1.6,0.5C40.7,34.4,40.9,34.9,40.9,35.6z"/>
		<path class="st1" d="M40.9,20.7v11.5c0,0.5-0.2,0.7-0.4,0.8c-0.2,0.1-0.5,0.2-0.8,0.2c-0.3,0-0.5-0.1-0.8-0.2
			c-0.2-0.1-0.4-0.4-0.4-0.8v-4.8H36V32c0,0.5-0.2,0.7-0.4,0.8c-0.4,0.3-1.1,0.3-1.5,0c-0.2-0.1-0.4-0.4-0.4-0.8V20.8
			c0-0.5,0.2-0.7,0.4-0.8c0.5-0.3,1.1-0.3,1.6,0c0.2,0.1,0.4,0.4,0.4,0.8v4.3h2.4v-4.4c0-0.5,0.2-0.7,0.4-0.8c0.5-0.3,1.1-0.3,1.6,0
			C40.6,20,40.9,20.2,40.9,20.7z"/>
		<path class="st1" d="M33,30.7c0,0.3-0.1,0.5-0.3,0.8c-0.2,0.3-0.5,0.4-0.8,0.5c-0.2,0-0.5,0-0.9-0.3c-0.3-0.3-0.7-0.6-1.1-0.9
			c-0.4-0.3-0.8-0.7-1.2-1.1c-0.6-0.5-1-1-1.2-1.3c0-0.1-0.1-0.1-0.1-0.2c0,0.1-0.1,0.1-0.1,0.2c-0.2,0.3-0.6,0.8-1.2,1.4
			c-0.5,0.5-1,0.9-1.4,1.2c-0.4,0.4-0.8,0.7-1.3,1.1c-0.2,0.2-0.5,0.3-0.7,0.3c-0.1,0-0.1,0-0.2,0c-0.3,0-0.6-0.2-0.8-0.4
			c-0.2-0.2-0.3-0.5-0.3-0.8c0-0.3,0.1-0.6,0.4-0.8c0.5-0.4,0.9-0.8,1.4-1.3c0.5-0.5,1-0.9,1.5-1.4c0.3-0.3,0.5-0.5,0.7-0.8
			c0.2-0.3,0.3-0.5,0.4-0.8c0.1-0.3,0.2-0.6,0.2-0.9c0-0.3,0.1-0.7,0.1-1.1v-2.5c0-0.5,0.2-0.7,0.4-0.9c0.5-0.3,1.1-0.3,1.6,0
			c0.2,0.1,0.5,0.4,0.5,0.9V24c0,0.4,0,0.8,0.1,1.1c0,0.3,0.1,0.6,0.2,0.9c0.1,0.3,0.2,0.5,0.4,0.8c0.2,0.3,0.4,0.5,0.7,0.8
			c0.5,0.5,0.9,0.9,1.3,1.2c0.4,0.4,0.8,0.7,1.2,1.1C32.8,30.1,33,30.4,33,30.7z"/>
	</g>
</g>
</svg>
