<?xml version="1.0" encoding="utf-8"?>
<!-- Generator: Adobe Illustrator 22.0.1, SVG Export Plug-In . SVG Version: 6.00 Build 0)  -->
<svg version="1.1" id="레이어_1" xmlns="http://www.w3.org/2000/svg" xmlns:xlink="http://www.w3.org/1999/xlink" x="0px"
	 y="0px" viewBox="0 0 64 64" style="enable-background:new 0 0 64 64;" xml:space="preserve">
<style type="text/css">
	.st0{fill:#675DCE;}
</style>
<g>
	<g>
		<polygon class="st0" points="52,53 50,53 50,51 51,51 51,50 53,50 53,52 		"/>
	</g>
	<g>
		<path class="st0" d="M44,53h-4v-2h4V53z M34,53h-4v-2h4V53z M24,53h-4v-2h4V53z"/>
	</g>
	<g>
		<polygon class="st0" points="14,53 12,53 11,52 11,50 13,50 13,51 14,51 		"/>
	</g>
	<g>
		<path class="st0" d="M13,44h-2v-4h2V44z M13,34h-2v-4h2V34z M13,24h-2v-4h2V24z"/>
	</g>
	<g>
		<polygon class="st0" points="13,14 11,14 11,12 12,11 14,11 14,13 13,13 		"/>
	</g>
	<g>
		<path class="st0" d="M44,13h-4v-2h4V13z M34,13h-4v-2h4V13z M24,13h-4v-2h4V13z"/>
	</g>
	<g>
		<polygon class="st0" points="53,14 51,14 51,13 50,13 50,11 52,11 53,12 		"/>
	</g>
	<g>
		<path class="st0" d="M53,44h-2v-4h2V44z M53,34h-2v-4h2V34z M53,24h-2v-4h2V24z"/>
	</g>
</g>
<g>
	<path class="st0" d="M28.8,20.9c0.2,0,0.4,0.1,0.6,0.2c0.2,0.1,0.3,0.3,0.3,0.6v2.8c0,0.8,0.1,1.5,0.4,2.1c0.3,0.6,0.7,1.2,1.3,1.7
		c0.6,0.5,1.2,1,1.7,1.4c0.5,0.4,1,0.8,1.4,1.1c0.2,0.2,0.3,0.3,0.3,0.6c0,0.2-0.1,0.4-0.2,0.6c-0.1,0.2-0.3,0.3-0.5,0.3
		s-0.4,0-0.6-0.2c-0.4-0.3-0.9-0.7-1.4-1c-0.5-0.4-1-0.8-1.6-1.3c-0.6-0.5-1-0.9-1.3-1.3c-0.2-0.3-0.4-0.6-0.5-0.9h0
		c-0.1,0.3-0.2,0.6-0.5,0.9c-0.2,0.4-0.7,0.8-1.3,1.3c-0.6,0.5-1.1,0.9-1.7,1.4c-0.6,0.4-1.1,0.9-1.7,1.2c-0.2,0.2-0.4,0.2-0.6,0.2
		c-0.2-0.1-0.4-0.2-0.5-0.3c-0.1-0.2-0.2-0.3-0.2-0.6s0.1-0.4,0.3-0.6c1.2-0.8,2.4-1.8,3.5-2.8c0.6-0.5,1-1.1,1.3-1.7
		c0.3-0.6,0.4-1.3,0.4-2.1v-2.9c0-0.3,0.1-0.4,0.3-0.6C28.4,20.9,28.6,20.9,28.8,20.9z M27.1,34.2c0.2,0,0.4,0.1,0.6,0.2
		c0.2,0.1,0.3,0.3,0.3,0.6v4.7c0,0.3,0.2,0.4,0.5,0.4h11.5c0.2,0,0.4,0.1,0.5,0.2c0.1,0.2,0.1,0.3,0.1,0.5s0,0.4-0.1,0.5
		c-0.1,0.2-0.3,0.2-0.5,0.2h-12c-0.6,0-1.1-0.1-1.3-0.3c-0.2-0.2-0.4-0.7-0.4-1.3v-5.1c0-0.3,0.1-0.4,0.3-0.6
		C26.7,34.2,26.9,34.2,27.1,34.2z M39.1,20c0.2,0,0.4,0.1,0.6,0.2c0.2,0.1,0.3,0.3,0.3,0.6v14.6c0,0.3-0.1,0.4-0.3,0.6
		C39.5,36,39.3,36,39.1,36c-0.2,0-0.4-0.1-0.6-0.2c-0.2-0.1-0.3-0.3-0.3-0.6v-8.8h-4.3c-0.2,0-0.4-0.1-0.5-0.2
		c-0.1-0.1-0.1-0.3-0.1-0.6c0-0.2,0-0.4,0.1-0.5c0.1-0.2,0.2-0.2,0.5-0.2h4.3v-4.3c0-0.3,0.1-0.4,0.3-0.6C38.7,20,38.9,20,39.1,20z"
		/>
</g>
</svg>
