<?xml version="1.0" encoding="utf-8"?>
<!-- Generator: Adobe Illustrator 22.0.1, SVG Export Plug-In . SVG Version: 6.00 Build 0)  -->
<svg version="1.1" id="레이어_1" xmlns="http://www.w3.org/2000/svg" xmlns:xlink="http://www.w3.org/1999/xlink" x="0px"
	 y="0px" viewBox="0 0 64 64" style="enable-background:new 0 0 64 64;" xml:space="preserve">
<style type="text/css">
	.st0{fill:#675DCE;}
	.st1{enable-background:new    ;}
</style>
<g>
	<path class="st0" d="M32,57c-12.1,0-22-9.9-22-22s9.9-22,22-22s22,9.9,22,22S44.1,57,32,57z M32,17c-9.9,0-18,8.1-18,18
		s8.1,18,18,18s18-8.1,18-18S41.9,17,32,17z"/>
</g>
<g>
	<path class="st0" d="M32,16.5c-0.8,0-1.5-0.7-1.5-1.5v-4c0-0.8,0.7-1.5,1.5-1.5s1.5,0.7,1.5,1.5v4C33.5,15.8,32.8,16.5,32,16.5z"/>
</g>
<g>
	<path class="st0" d="M46.2,22.3c-0.4,0-0.8-0.1-1.1-0.4c-0.6-0.6-0.6-1.5,0-2.1l2.8-2.8c0.6-0.6,1.5-0.6,2.1,0s0.6,1.5,0,2.1
		l-2.8,2.8C46.9,22.2,46.5,22.3,46.2,22.3z"/>
</g>
<g>
	<path class="st0" d="M34,11h-4c-1.1,0-2-0.9-2-2s0.9-2,2-2h4c1.1,0,2,0.9,2,2S35.1,11,34,11z"/>
</g>
<g class="st1">
	<path class="st0" d="M35.2,25.4c0.1,0.1,0.1,0.3,0.1,0.5s0,0.4-0.1,0.6c-0.1,0.1-0.2,0.2-0.5,0.2h-4.3v1.7c0,0.8,0.1,1.5,0.4,2.1
		s0.7,1.1,1.3,1.6c0.6,0.5,1.2,0.9,1.7,1.3s1,0.7,1.4,1c0.2,0.2,0.3,0.3,0.3,0.5s0,0.4-0.2,0.6c-0.1,0.2-0.3,0.3-0.5,0.3
		c-0.2,0.1-0.4,0-0.6-0.1c-0.3-0.2-0.7-0.5-1.2-0.9s-1-0.8-1.6-1.2c-0.6-0.5-1.1-0.9-1.4-1.3c-0.3-0.3-0.5-0.6-0.5-0.9l0,0
		c-0.1,0.3-0.2,0.6-0.5,0.9c-0.3,0.4-0.8,0.8-1.4,1.3c-0.6,0.4-1.1,0.9-1.7,1.3c-0.6,0.4-1.1,0.8-1.5,1.1c-0.2,0.1-0.4,0.2-0.6,0.1
		c-0.2-0.1-0.4-0.2-0.5-0.3c-0.1-0.2-0.2-0.4-0.2-0.6c0-0.2,0.1-0.4,0.3-0.5c0.6-0.4,1.1-0.8,1.7-1.2s1.1-0.9,1.8-1.3
		c0.6-0.5,1-1,1.3-1.6s0.4-1.2,0.4-2.1v-1.8h-4.5c-0.2,0-0.4-0.1-0.5-0.2s-0.1-0.3-0.1-0.6c0-0.2,0-0.4,0.1-0.5s0.2-0.2,0.5-0.2
		h10.6C35,25.2,35.1,25.2,35.2,25.4z M34,37.3c2.2,0,3.9,0.4,5.1,1.1c1.2,0.7,1.8,1.8,1.8,3.3c0,1.4-0.6,2.5-1.8,3.3
		c-1.2,0.7-2.9,1.1-5.1,1.1s-3.9-0.4-5.1-1.1c-1.2-0.7-1.8-1.8-1.8-3.3c0-1.4,0.6-2.5,1.8-3.3C30.1,37.7,31.8,37.3,34,37.3z
		 M34,38.7c-1.7,0-3,0.3-3.9,0.8c-0.8,0.5-1.2,1.2-1.2,2.2c0,0.9,0.4,1.6,1.2,2.2c0.8,0.5,2.1,0.8,3.9,0.8c1.7,0,3-0.3,3.9-0.8
		c0.8-0.5,1.2-1.2,1.2-2.2c0-0.9-0.4-1.6-1.2-2.2C37,39,35.7,38.7,34,38.7z M39.8,23.9c0.2,0,0.4,0.1,0.6,0.2s0.3,0.3,0.3,0.6v11.7
		c0,0.3-0.1,0.4-0.3,0.6c-0.2,0.1-0.4,0.2-0.6,0.2c-0.2,0-0.4-0.1-0.6-0.2c-0.2-0.1-0.3-0.3-0.3-0.6v-5.2h-4.1
		c-0.2,0-0.4-0.1-0.5-0.2s-0.1-0.3-0.1-0.6c0-0.2,0-0.4,0.1-0.5c0.1-0.2,0.2-0.2,0.5-0.2h4.1v-4.9c0-0.3,0.1-0.4,0.3-0.6
		C39.4,23.9,39.6,23.9,39.8,23.9z"/>
</g>
</svg>
